Coordinates
version=1
nRows=38
nColumns=12
inDegrees=yes

Units are S.I. units (second, meters, Newtons, ...)
Angles are in degrees

endheader
time	SC_y	SC_z	SC_x	AC_y	AC_z	AC_x	GH_y	GH_z	GH_yy	EL_x	PS_y
       0.0              -14.76          6.663          53.25           58.6         -13.59         -17.26         -110.3          7.901          146.4          27.91          71.84
   0.02129              -14.76          6.664          53.25           58.6         -13.59         -17.26         -110.3          7.904          146.4          27.91          71.84
   0.04259              -14.77          6.664          53.25           58.6         -13.59         -17.26         -110.3          7.906          146.4           27.9          71.84
   0.06388              -14.77          6.665          53.26           58.6         -13.58         -17.25         -110.3           7.91          146.4           27.9          71.85
   0.08517              -14.77          6.666          53.26           58.6         -13.58         -17.25         -110.2          7.913          146.4           27.9          71.85
    0.1065              -14.77          6.668          53.26           58.6         -13.58         -17.25         -110.2          7.916          146.3          27.89          71.85
    0.1278              -14.78          6.669          53.27           58.6         -13.58         -17.25         -110.2           7.92          146.3          27.89          71.86
    0.1491              -14.78           6.67          53.27           58.6         -13.58         -17.24         -110.2          7.924          146.3          27.88          71.86
    0.1703              -14.78          6.671          53.27           58.6         -13.58         -17.24         -110.1          7.928          146.2          27.88          71.87
    0.1916              -14.78          6.673          53.28           58.6         -13.58         -17.24         -110.1          7.933          146.2          27.87          71.87
    0.2129              -14.79          6.675          53.28          58.61         -13.57         -17.23         -110.1          7.937          146.2          27.87          71.88
    0.2342              -14.79          6.676          53.29          58.61         -13.57         -17.23         -110.0          7.943          146.1          27.86          71.89
    0.2555              -14.79          6.678          53.29          58.61         -13.57         -17.22         -110.0          7.948          146.1          27.85          71.89
    0.2768               -14.8           6.68           53.3          58.61         -13.57         -17.22         -110.0          7.954          146.1          27.84           71.9
    0.2981               -14.8          6.682           53.3          58.61         -13.56         -17.21         -109.9          7.961          146.0          27.84          71.91
    0.3194              -14.81          6.685          53.31          58.61         -13.56         -17.21         -109.9          7.968          146.0          27.83          71.92
    0.3407              -14.81          6.687          53.32          58.61         -13.56          -17.2         -109.8          7.976          145.9          27.82          71.92
     0.362              -14.82           6.69          53.32          58.62         -13.56         -17.19         -109.8          7.985          145.9          27.81          71.93
    0.3833              -14.83          6.693          53.33          58.62         -13.55         -17.19         -109.7          7.994          145.8           27.8          71.95
    0.4046              -14.83          6.696          53.34          58.62         -13.55         -17.18         -109.7          8.004          145.7          27.78          71.96
    0.4259              -14.84            6.7          53.35          58.62         -13.54         -17.17         -109.6          8.015          145.7          27.77          71.97
    0.4472              -14.85          6.704          53.36          58.62         -13.54         -17.16         -109.5          8.027          145.6          27.75          71.98
    0.4685              -14.86          6.708          53.37          58.63         -13.53         -17.15         -109.4          8.041          145.5          27.74           72.0
    0.4897              -14.87          6.713          53.39          58.63         -13.53         -17.13         -109.3          8.056          145.4          27.72          72.02
     0.511              -14.88          6.718           53.4          58.63         -13.52         -17.12         -109.2          8.073          145.3           27.7          72.04
    0.5323              -14.89          6.724          53.42          58.64         -13.51         -17.11         -109.1          8.091          145.1          27.68          72.06
    0.5536               -14.9          6.731          53.43          58.64         -13.51         -17.09         -109.0          8.112          145.0          27.65          72.08
    0.5749              -14.92          6.739          53.45          58.65          -13.5         -17.07         -108.8          8.135          144.8          27.62          72.11
    0.5962              -14.94          6.748          53.48          58.65         -13.49         -17.05         -108.6          8.162          144.6          27.59          72.14
    0.6175              -14.96          6.757           53.5          58.66         -13.48         -17.02         -108.4          8.192          144.4          27.55          72.18
    0.6388              -14.98          6.768          53.53          58.67         -13.46         -16.99         -108.2          8.226          144.2          27.51          72.22
    0.6601              -15.01          6.781          53.57          58.67         -13.45         -16.96         -108.0          8.266          143.9          27.46          72.26
    0.6814              -15.04          6.796          53.61          58.68         -13.43         -16.92         -107.7          8.311          143.6           27.4          72.31
    0.7027              -15.07          6.813          53.65          58.69         -13.41         -16.88         -107.3          8.364          143.3          27.34          72.38
     0.724              -15.12          6.833          53.71          58.71         -13.39         -16.83         -106.9          8.426          142.8          27.26          72.45
    0.7453              -15.17          6.857          53.77          58.72         -13.36         -16.77         -106.5          8.499          142.3          27.17          72.53
    0.7666              -15.22          6.885          53.85          58.74         -13.32          -16.7         -105.9          8.585          141.7          27.07          72.63
    0.7879              -15.29          6.919          53.94          58.76         -13.28         -16.61         -105.2          8.689          141.0          26.94          72.76
